<svg width="243" height="300" viewBox="0 0 243 300" fill="none" xmlns="http://www.w3.org/2000/svg">
<path d="M230.619 84.6253V237.905H242.15V84.6253H230.619ZM178.73 288.462H63.4203V300H178.73V288.462ZM11.531 237.905V84.6253H0V237.905H11.531ZM63.4203 288.462C34.6315 288.462 11.531 265.697 11.531 237.905H0C0 272.328 28.5253 300 63.4203 300V288.462ZM230.619 237.905C230.619 265.697 207.518 288.462 178.73 288.462V300C213.625 300 242.15 272.328 242.15 237.905H230.619ZM178.73 34.0688C207.518 34.0688 230.619 56.8333 230.619 84.6253H242.15C242.15 50.2015 213.625 22.5303 178.73 22.5303V34.0688ZM63.4203 22.5303C28.5253 22.5303 0 50.2015 0 84.6253H11.531C11.531 56.8333 34.6315 34.0688 63.4203 34.0688V22.5303ZM213.323 84.2557V155.17H224.854V84.2557H213.323ZM184.495 183.197H57.6548V194.736H184.495V183.197ZM28.8274 155.17V84.2557H17.2964V155.17H28.8274ZM57.6548 56.2295H184.495V44.691H57.6548V56.2295ZM28.8274 84.2557C28.8274 68.9069 41.6028 56.2295 57.6548 56.2295V44.691C35.4966 44.691 17.2964 62.2752 17.2964 84.2557H28.8274ZM57.6548 183.197C41.6028 183.197 28.8274 170.52 28.8274 155.17H17.2964C17.2964 177.151 35.4966 194.736 57.6548 194.736V183.197ZM213.323 155.17C213.323 170.52 200.548 183.197 184.495 183.197V194.736C206.653 194.736 224.854 177.151 224.854 155.17H213.323ZM224.854 84.2557C224.854 62.2752 206.653 44.691 184.495 44.691V56.2295C200.548 56.2295 213.323 68.9069 213.323 84.2557H224.854ZM82.7889 159.886L167.349 78.629L159.363 70.3066L74.802 151.563L82.7889 159.886ZM112.06 153.636L167.349 100.506L159.363 92.1834L104.073 145.313L112.06 153.636ZM63.4203 240.675C63.4203 246.451 58.48 251.527 51.8894 251.527V263.065C64.4038 263.065 74.9513 253.259 74.9513 240.675H63.4203ZM51.8894 251.527C45.2987 251.527 40.3584 246.451 40.3584 240.675H28.8274C28.8274 253.259 39.3749 263.065 51.8894 263.065V251.527ZM40.3584 240.675C40.3584 234.9 45.2987 229.824 51.8894 229.824V218.286C39.3749 218.286 28.8274 228.092 28.8274 240.675H40.3584ZM51.8894 229.824C58.48 229.824 63.4203 234.9 63.4203 240.675H74.9513C74.9513 228.092 64.4038 218.286 51.8894 218.286V229.824ZM201.792 240.675C201.792 246.451 196.852 251.527 190.261 251.527V263.065C202.776 263.065 213.323 253.259 213.323 240.675H201.792ZM190.261 251.527C183.67 251.527 178.73 246.451 178.73 240.675H167.199C167.199 253.259 177.746 263.065 190.261 263.065V251.527ZM178.73 240.675C178.73 234.9 183.67 229.824 190.261 229.824V218.286C177.746 218.286 167.199 228.092 167.199 240.675H178.73ZM190.261 229.824C196.852 229.824 201.792 234.9 201.792 240.675H213.323C213.323 228.092 202.776 218.286 190.261 218.286V229.824ZM69.0809 29.3949C71.0273 19.3242 80.1487 11.5385 91.282 11.5385V0C74.7132 0 60.7717 11.6194 57.7598 27.2041L69.0809 29.3949ZM63.4203 34.0688H178.73V22.5303H63.4203V34.0688ZM184.391 27.2041C181.379 11.6194 167.437 0 150.868 0V11.5385C162.002 11.5385 171.123 19.3242 173.069 29.3949L184.391 27.2041ZM91.282 11.5385H121.075V0H91.282V11.5385ZM121.075 11.5385H150.868V0H121.075V11.5385ZM86.4823 236.789H155.668V225.25H86.4823V236.789ZM86.4823 259.775H155.668V248.236H86.4823V259.775Z" fill="#7D5C65"/>
</svg>
